# xmcd
#
# Track frame offsets:
#	150
#	18082
#	37652
#	50668
#	67726
#	81757
#	94752
#	111326
#	127857
#	141829
#	158605
#	176143
#	193456
#	211517
#	231841
#	250057
#
# Disc length: 3526 seconds
#
# Revision: 0
# Processed by: cddbd v1.5.2PL0 Copyright (c) Steve Scherf et al.
# Submitted via: EasyCDDAExtractor 10.5.1.1
#
DISCID=ca0dc410
DTITLE=Alan Jackson - 16 Biggest Hits
DYEAR=2007
DGENRE=Country
TTITLE0=Chattahoochee
TTITLE1=Gone Country
TTITLE2=It Must Be Love
TTITLE3=Midnight In Montgomery
TTITLE4=Chasin' That Neon Rainbow
TTITLE5=Don't Rock The Jukebox
TTITLE6=Mercury Blues
TTITLE7=Here In The Real World
TTITLE8=Pop A Top
TTITLE9=That'd Be Alright
TTITLE10=I Don't Even Know Your Name
TTITLE11=Gone Crazy
TTITLE12=I'll Go On Loving You
TTITLE13=Little Man
TTITLE14=Who's Cheatin' Who
TTITLE15=Summertime Blues
EXTD=
EXTT0=
EXTT1=
EXTT2=
EXTT3=
EXTT4=
EXTT5=
EXTT6=
EXTT7=
EXTT8=
EXTT9=
EXTT10=
EXTT11=
EXTT12=
EXTT13=
EXTT14=
EXTT15=
PLAYORDER=
